<svg xmlns="http://www.w3.org/2000/svg" width="154" height="53" viewBox="0 0 154 53"><g fill="#3D3D3D"><path d="M91.91 27.524l-6.085.117c5.242-.96 8.793-6.014 8.793-6.014h-5.014a5.9 5.9 0 0 0-5.832 5.014l-1.09 7.184c7.975-.308 9.23-6.3 9.23-6.3z"/><path d="M104.21 22.54c1.314-1.448 2.524-3.205 3.627-5.273h-4.074c-.374.897-.81 1.69-1.307 2.378-1.157-1.034-2.78-1.61-4.806-2.197l-.438 2.767c1.33.735 2.327.946 2.84 2.117-.998.896-2.284 1.185-4.044 2.01l-.402 2.537c1.783-.483 3.345-1.035 4.685-1.655l-.097.62-.426 2.687c-1.184 1.103-2.726 1.53-4.807 2.425l-.45 2.846c1.782-.482 3.344-1.034 4.684-1.654l-.574 3.555c-.153.966-.355 1.447-1.16 1.447h-4.278-12.258c-1.106 0-1.57-.735-1.28-1.984l2.447-14.71c.265-1.94-1.362-3.042-3.042-3.042H68.663a2.828 2.828 0 0 0 2.828 2.828h4.428c1.12 0 .91.91.798 2.023-.035.352-2.15 12.923-2.15 12.923-.42 2.264.042 3.326.77 4.136 1.06 1.18 2.495 1.195 6.268 1.195h5.988v.002h9.928c2.938.068 4.55-1.07 4.846-3.41l1.883-11.887c.163-1.03.15-1.926-.04-2.686z"/><path d="M123.467 19.163h-3.475a.192.192 0 0 0-.013.017h-4.817l.336-2.118h-4.075l-.336 2.118H107.3l-.393 2.48h3.786l-.428 2.702h-5.183l-.41 2.584h7.1c-2.147 1.31-5.437 3.062-7.734 4.008l-.392 2.48c-.027.02.923-.317 1.09-.386.408-.137.905-.45 1.148-.52l-.808 5.107c-.253 1.596.836 2.89 2.432 2.89h9.012c1.596 0 3.095-1.294 3.348-2.89l.1-.625.775-4.9c.253-1.596-.836-2.89-2.432-2.89h-5.15c1.26-.62 2.44-1.447 3.502-2.274h3.557c2.102 0 3.075-2.584 3.075-2.584h-4.006c1.546-1.447 2.85-3.2 4.177-5.2zm-8.2 12.64c.735 0 1.76.597 1.644 1.333l-.582 3.68c-.116.735-1.33 1.332-2.067 1.332h-4.09c-.736 0-1.238-.597-1.12-1.333l.104-.665h3.9c1.93 0 2.717-2.42 2.717-2.42h-6.233l.093-.593c.116-.736.807-1.333 1.543-1.333h4.093zm-.173-7.44h-.753l.43-2.702h3.13c-.945 1.04-1.88 1.947-2.806 2.702z"/></g><path fill="#FFC300" d="M26.73 52.64c-7.384 0-13.996-2.594-18.687-7.307C3.417 40.683.956 34.686 1 27.133c.04-7.117 2.924-14.06 7.99-18.857C14.712 2.856 22.153.484 32.888.662L62.726.484l-.472 2.21c-.494 2.762-1.595 7.386-3.84 10.244l4.057-.075-.597 2.712c-.517 2.384-3.034 10.94-10.348 14.23-.407 5.266-2.962 11.463-7.02 15.527-4.676 4.68-10.452 7.307-17.774 7.307z"/><path fill="#3D3D3D" d="M26.04 47.748c-5.907 0-11.2-2.11-14.91-5.838-3.68-3.7-5.55-8.836-5.515-14.85.06-10.635 7.684-21.566 25.878-21.366H54.86l-.533 2.583c-.606 2.934-1.7 5.416-2.68 6.98h3.142l-.5 2.096c-.05.313-1.68 7.28-7.918 10.862-.27 5.478-2.293 10.35-5.766 13.83-3.687 3.695-8.724 5.703-14.567 5.703z"/><path fill="#FFF" d="M50.472 8.682s-14.624.06-19.352 0c-15.158-.195-22.384 8.984-22.437 18.2-.066 11.465 7.88 17.595 17.273 17.595 10.59 0 17.262-7.58 17.24-17.77 6.008-2.723 7.066-9.346 7.066-9.346h-3.845c1.36-1.522 3.35-4.376 4.055-8.678z"/><g fill="#3D3D3D"><circle cx="16.814" cy="21.562" r="1.709"/><circle cx="35.433" cy="21.562" r="1.709"/></g><path fill="#FF6D6D" d="M28.003 36.29h-3.76c-3.537 0-6.414-2.877-6.414-6.414s2.876-6.414 6.413-6.414h3.76a6.422 6.422 0 0 1 6.415 6.414 6.422 6.422 0 0 1-6.415 6.414z"/><circle fill="#3D3D3D" cx="23.84" cy="29.877" r="1.438"/><circle fill="#3D3D3D" cx="28.494" cy="29.877" r="1.438"/></svg>